<?xml version="1.0" encoding="utf-8"?>
<!-- Generator: Adobe Illustrator 22.1.0, SVG Export Plug-In . SVG Version: 6.00 Build 0)  -->
<svg version="1.1"
	 id="svg8" inkscape:version="0.92.2 5c3e80d, 2017-08-06" sodipodi:docname="LOGO.svg" xmlns:cc="http://creativecommons.org/ns#" xmlns:dc="http://purl.org/dc/elements/1.1/" xmlns:inkscape="http://www.inkscape.org/namespaces/inkscape" xmlns:rdf="http://www.w3.org/1999/02/22-rdf-syntax-ns#" xmlns:sodipodi="http://sodipodi.sourceforge.net/DTD/sodipodi-0.dtd" xmlns:svg="http://www.w3.org/2000/svg"
	 xmlns="http://www.w3.org/2000/svg" xmlns:xlink="http://www.w3.org/1999/xlink" x="0px" y="0px" viewBox="0 0 299.1 134.1"
	 style="enable-background:new 0 0 299.1 134.1;" xml:space="preserve">
<style type="text/css">
	.st0{enable-background:new    ;}
	.st1{fill:#021B59;}
	.st2{fill:#1F74E9;}
	.st3{fill:#9FC8FC;}
	.st4{fill:#217BF8;}
	.st5{fill:url(#path4604_1_);}
	.st6{fill:url(#path4616_1_);}
	.st7{fill:url(#path849_1_);}
	.st8{fill:#FFFFFF;}
</style>
<sodipodi:namedview  bordercolor="#666666" borderopacity="1.0" id="base" inkscape:current-layer="layer1" inkscape:cx="539.55991" inkscape:cy="125.34825" inkscape:document-units="mm" inkscape:guide-bbox="true" inkscape:pageopacity="0.0" inkscape:pageshadow="2" inkscape:snap-global="false" inkscape:window-height="756" inkscape:window-maximized="0" inkscape:window-width="1280" inkscape:window-x="-4" inkscape:window-y="0" inkscape:zoom="0.35" pagecolor="#ffffff" showgrid="false" showguides="true">
	<sodipodi:guide  id="guide4570" inkscape:locked="false" orientation="0,1" position="95.627976,314.85417"></sodipodi:guide>
</sodipodi:namedview>
<g id="layer1" transform="translate(0,-87)" inkscape:groupmode="layer" inkscape:label="Layer 1">
	<g class="st0">
		<path class="st1" d="M17.9,170.3c0.6,1.1,1.3,2,2.2,2.6c0.9,0.7,2,1.2,3.3,1.5c1.3,0.3,2.5,0.5,3.9,0.5c0.9,0,1.9-0.1,2.9-0.2
			c1-0.2,2-0.4,2.9-0.9c0.9-0.4,1.7-1,2.3-1.8c0.6-0.8,0.9-1.7,0.9-2.9c0-1.3-0.4-2.3-1.2-3c-0.8-0.8-1.8-1.4-3.1-1.9
			c-1.3-0.5-2.8-1-4.4-1.4c-1.6-0.4-3.3-0.8-5-1.3c-1.7-0.4-3.4-1-5.1-1.6c-1.6-0.6-3.1-1.4-4.4-2.4c-1.3-1-2.3-2.2-3.1-3.7
			c-0.8-1.5-1.2-3.3-1.2-5.4c0-2.4,0.5-4.4,1.5-6.2c1-1.7,2.3-3.2,4-4.4c1.6-1.2,3.5-2,5.6-2.6c2.1-0.6,4.1-0.8,6.2-0.8
			c2.4,0,4.7,0.3,7,0.8c2.2,0.5,4.2,1.4,5.9,2.6c1.7,1.2,3.1,2.8,4.1,4.6c1,1.9,1.5,4.2,1.5,6.8h-9.8c-0.1-1.4-0.4-2.5-0.9-3.4
			c-0.5-0.9-1.2-1.6-2-2.1c-0.8-0.5-1.8-0.9-2.8-1.1c-1.1-0.2-2.2-0.3-3.5-0.3c-0.8,0-1.6,0.1-2.5,0.3c-0.8,0.2-1.6,0.5-2.2,0.9
			c-0.7,0.4-1.2,1-1.7,1.6c-0.4,0.6-0.6,1.5-0.6,2.5c0,0.9,0.2,1.6,0.5,2.2c0.3,0.6,1,1.1,2,1.6c1,0.5,2.4,1,4.2,1.4
			c1.8,0.5,4.1,1.1,7,1.8c0.9,0.2,2.1,0.5,3.6,0.9c1.5,0.5,3.1,1.2,4.6,2.2c1.5,1,2.8,2.3,3.9,4c1.1,1.7,1.7,3.8,1.7,6.4
			c0,2.1-0.4,4.1-1.2,5.9c-0.8,1.8-2,3.4-3.7,4.7c-1.6,1.3-3.6,2.3-6,3.1c-2.4,0.7-5.2,1.1-8.3,1.1c-2.5,0-5-0.3-7.4-0.9
			c-2.4-0.6-4.5-1.6-6.3-2.9c-1.8-1.3-3.3-3-4.4-5.1c-1.1-2.1-1.6-4.5-1.6-7.4H17C17,167.9,17.3,169.2,17.9,170.3z"/>
		<path class="st1" d="M73,135.4c2.9,0,5.4,0.4,7.4,1.3c2,0.8,3.7,2,5,3.3c1.3,1.4,2.2,3,2.8,4.7c0.6,1.8,0.9,3.6,0.9,5.5
			c0,1.9-0.3,3.7-0.9,5.5c-0.6,1.8-1.5,3.4-2.8,4.8c-1.3,1.4-2.9,2.5-5,3.3c-2,0.8-4.5,1.3-7.4,1.3H62.3v16.6H52.1v-46.2H73z
			 M70.2,157.2c1.2,0,2.3-0.1,3.4-0.3c1.1-0.2,2-0.5,2.8-1c0.8-0.5,1.5-1.2,2-2.1c0.5-0.9,0.7-2.1,0.7-3.6c0-1.5-0.2-2.7-0.7-3.6
			c-0.5-0.9-1.2-1.6-2-2.1c-0.8-0.5-1.8-0.8-2.8-1c-1.1-0.2-2.2-0.3-3.4-0.3h-7.9v13.9H70.2z"/>
		<path class="st1" d="M215,147.8c-0.6-1-1.4-1.8-2.3-2.6c-0.9-0.7-1.9-1.3-3.1-1.7c-1.1-0.4-2.3-0.6-3.6-0.6
			c-2.3,0-4.2,0.4-5.8,1.3c-1.6,0.9-2.9,2.1-3.9,3.6c-1,1.5-1.7,3.2-2.2,5.1c-0.5,1.9-0.7,3.9-0.7,5.9c0,1.9,0.2,3.8,0.7,5.7
			c0.5,1.8,1.2,3.5,2.2,5c1,1.5,2.3,2.6,3.9,3.5c1.6,0.9,3.5,1.3,5.8,1.3c3.1,0,5.5-0.9,7.3-2.8c1.7-1.9,2.8-4.4,3.2-7.5h9.8
			c-0.3,2.9-0.9,5.5-2,7.8c-1.1,2.3-2.5,4.3-4.3,6c-1.8,1.6-3.8,2.9-6.2,3.8c-2.4,0.9-5,1.3-7.8,1.3c-3.5,0-6.7-0.6-9.6-1.8
			s-5.2-2.9-7.2-5.1c-1.9-2.2-3.4-4.7-4.5-7.6c-1-2.9-1.6-6.1-1.6-9.4c0-3.5,0.5-6.7,1.6-9.6c1-3,2.5-5.5,4.5-7.7
			c1.9-2.2,4.3-3.9,7.2-5.2c2.8-1.3,6-1.9,9.6-1.9c2.5,0,5,0.4,7.2,1.1c2.3,0.7,4.3,1.8,6.1,3.2c1.8,1.4,3.3,3.1,4.4,5.2
			c1.2,2.1,1.9,4.4,2.2,7.1h-9.8C216,149.8,215.6,148.8,215,147.8z"/>
		<path class="st1" d="M267.9,135.4v8.5h-24.4v9.9h22.4v7.9h-22.4v11.3h24.9v8.5h-35.1v-46.2H267.9z"/>
	</g>
	
		<path id="path4547" inkscape:connector-curvature="0" inkscape:export-xdpi="853.58246" inkscape:export-ydpi="853.58246" class="st2" d="
		M82.3,172.5c0.3-0.4,3.8-3.2,6-4.8c9.7-7.1,18.2-9.5,25.6-7.1c3.4,1.1,6.5,2.9,12.1,6.9c6,4.3,9.1,6.1,12.7,7.1
		c3.4,1,7.6,1.1,11.1,0.1c5.2-1.4,11.4-4.9,17.7-10l2-1.7l-1.4,2c-2.3,3.2-6.3,8-9,11c-7,7.6-13.4,12.6-20.4,15.7
		c-7,3.2-13.6,3.9-20.9,2.3c-8.2-1.8-14.7-5.5-29.2-16.5C82,172.5,82.2,172.7,82.3,172.5L82.3,172.5z"/>
	
		<path id="path49" inkscape:connector-curvature="0" inkscape:export-xdpi="853.58246" inkscape:export-ydpi="853.58246" class="st3" d="
		M143.7,195.9c4.4-2.4,11.4-7.8,15.7-12.2c2.1-2.2,6.8-7.9,8.5-10.5c9.1-13.8,13.4-32,11.9-49.9c-0.3-3.3-0.8-6.8-1.4-9
		c-0.1-0.4-1-0.4-5.7-0.5c-7.5-0.1-10.2,0-14.4,0.5c-10.4,1.3-19.2,5.3-27.3,12.6c-2.8,2.6-3.5,3.4-5.2,6.5c-5.8,11-7.7,20-5.6,27
		c1.3,4.4,3.9,7.7,10.5,13.9c4.9,4.5,6.4,6.1,8,8.2c2.6,3.5,3.8,6.4,4.3,10.8C143.3,195.4,143.5,196,143.7,195.9L143.7,195.9z"/>
	
		<path id="path51" inkscape:connector-curvature="0" inkscape:export-xdpi="853.58246" inkscape:export-ydpi="853.58246" class="st4" d="
		M137.7,218c0.3-0.4,2.3-4.4,3.5-6.9c5-11.1,5.6-20,1.6-26.9c-1.8-3.1-4.2-5.8-9.4-10.6c-5.5-5-7.9-7.8-9.7-11.1
		c-1.7-3.2-2.6-7.3-2.5-11c0.3-5.5,2.4-12.3,6.2-19.6l1.2-2.4l-1.7,1.8c-2.7,3-6.7,7.9-9.1,11.2c-6.1,8.5-9.7,15.9-11.3,23.4
		c-1.7,7.6-1,14.3,2.1,21.2c3.5,7.7,8.5,13.4,22.5,25.5C137.7,218.4,137.5,218.2,137.7,218L137.7,218z"/>
	
		<path id="path4582" inkscape:connector-curvature="0" inkscape:export-xdpi="853.58246" inkscape:export-ydpi="853.58246" sodipodi:nodetypes="cccccccccccccccc" class="st1" d="
		M144.8,195.1c2.8-1,8.8-8.3,11.3-14c2.3-5.1,2.8-9.8,1.6-15c-0.7-2.8-1.3-4.4-3.7-10.4c-5.2-12.4-6.1-18.7-4-28.1
		c0.9-4.2,2.9-9.4,4.7-12.7c0.1-0.3-0.3-0.2-1.5,0c-6.4,1.4-13.4,4.8-19,9.2c-2,1.6-5.7,5-6.3,5.9c-0.7,0.9-3.2,6.5-4.3,9.4
		c-3.7,9.5-3.9,16.3-0.9,22.6c1.7,3.5,3.9,6.1,10.8,12.5c4.9,4.6,7.2,7.3,8.9,10.5c1,1.9,1.8,4.9,2,7.6
		C144.5,194.1,144.7,195.2,144.8,195.1L144.8,195.1z"/>
	
		<path id="path4584" inkscape:connector-curvature="0" inkscape:export-xdpi="853.58246" inkscape:export-ydpi="853.58246" class="st1" d="
		M172.1,165.9c0.3-0.3,2.1-4.5,2.9-6.6c3.6-9.5,5.3-20.1,5.1-30.6c-0.1-4.2-1-12.6-1.6-14.2c-0.1-0.4-0.2-0.4-0.8-0.5
		c-0.8-0.1-5.7-0.2-9.7-0.2l-2.9,0l-0.3,1.1c-1.1,4.4-1.3,9.2-0.7,13.5c0.6,4.2,1.8,8.1,5,15.6c2.7,6.4,3.5,8.9,3.9,12.4
		c0.3,2.8,0.2,5.5-0.5,7.8C171.9,165.9,171.9,166.1,172.1,165.9L172.1,165.9z"/>
	
		<linearGradient id="path4604_1_" gradientUnits="userSpaceOnUse" x1="-263.7029" y1="348.4887" x2="-272.4424" y2="311.7315" gradientTransform="matrix(2.1403 -0.4717 -0.4717 -2.1403 858.5728 721.0451)">
		<stop  offset="0" style="stop-color:#000000"/>
		<stop  offset="1" style="stop-color:#000000;stop-opacity:0"/>
	</linearGradient>
	
		<path id="path4604" inkscape:connector-curvature="0" inkscape:export-xdpi="853.58246" inkscape:export-ydpi="853.58246" class="st5" d="
		M138.6,199.7c0.3-0.3,1.9-3.7,2.9-5.7c4.2-9.2,4.6-16.6,1.4-22.2c-1.5-2.6-3.5-4.8-7.8-8.7c-4.6-4.2-6.6-6.4-8-9.2
		c-1.4-2.6-2.2-6.1-2-9.1c0.2-4.5,2-10.2,5.1-16.2l1-1.9l-1.4,1.5c-2.2,2.5-5.5,6.5-7.5,9.3c-5,7-8,13.2-9.3,19.4
		c-1.4,6.3-0.8,11.8,1.7,17.5c2.9,6.4,7,11.1,18.6,21.1C138.7,200,138.5,199.8,138.6,199.7L138.6,199.7z"/>
	
		<linearGradient id="path4616_1_" gradientUnits="userSpaceOnUse" x1="-251.2268" y1="345.2015" x2="-252.1356" y2="324.8447" gradientTransform="matrix(2.2638 -0.4989 -0.4989 -2.2638 903.9232 756.2717)">
		<stop  offset="0" style="stop-color:#000000"/>
		<stop  offset="1" style="stop-color:#000000;stop-opacity:0"/>
	</linearGradient>
	
		<path id="path4616" inkscape:connector-curvature="0" inkscape:export-xdpi="853.58246" inkscape:export-ydpi="853.58246" class="st6" d="
		M167.5,166c0.3-0.3,2.1-4.5,2.9-6.6c3.6-9.5,5.3-20.1,5.1-30.6c-0.1-4.2-1-12.6-1.6-14.2c-0.1-0.4-0.2-0.4-0.8-0.5
		c-0.8-0.1-5.7-0.2-9.7-0.2l-2.9,0l-0.3,1.1c-1.1,4.4-1.3,9.2-0.7,13.5c0.6,4.2,1.8,8.1,5,15.6c2.7,6.4,3.5,8.9,3.9,12.4
		c0.3,2.8,0.2,5.5-0.5,7.8C167.4,166.1,167.4,166.2,167.5,166L167.5,166z"/>
	
		<linearGradient id="path849_1_" gradientUnits="userSpaceOnUse" x1="-193.401" y1="269.6669" x2="-187.4485" y2="275.3922" gradientTransform="matrix(2.8346 0 0 -2.8346 824.9067 946.5682)">
		<stop  offset="0" style="stop-color:#217BF8"/>
		<stop  offset="1" style="stop-color:#021B59"/>
	</linearGradient>
	
		<circle id="path849" inkscape:export-xdpi="853.58246" inkscape:export-ydpi="853.58246" class="st7" cx="285.2" cy="173.9" r="8.8">
	</circle>
</g>
<path d="M290.6,36.8h-25.1c-2,0-3.7-1.7-3.7-3.7v-8.4c0-2,1.7-3.7,3.7-3.7h25.1c2,0,3.7,1.7,3.7,3.7v8.4
	C294.3,35.2,292.6,36.8,290.6,36.8z"/>
<g>
	<path class="st8" d="M268.3,24.1c0.5-0.1,1.2-0.2,1.9-0.2c1,0,1.7,0.2,2.2,0.6c0.4,0.3,0.7,0.8,0.7,1.4c0,0.8-0.5,1.5-1.4,1.8v0
		c0.8,0.2,1.7,0.8,1.7,2c0,0.7-0.3,1.2-0.7,1.6c-0.6,0.5-1.5,0.8-2.8,0.8c-0.7,0-1.3,0-1.6-0.1V24.1z M269.3,27.4h0.9
		c1.1,0,1.8-0.6,1.8-1.4c0-0.9-0.7-1.3-1.8-1.3c-0.5,0-0.8,0-0.9,0.1V27.4z M269.3,31.3c0.2,0,0.5,0,0.9,0c1.1,0,2.1-0.4,2.1-1.6
		c0-1.1-0.9-1.6-2.1-1.6h-0.9V31.3z"/>
	<path class="st8" d="M275.4,29.4c0,1.4,0.9,2,2,2c0.8,0,1.2-0.1,1.6-0.3l0.2,0.8c-0.4,0.2-1,0.4-1.9,0.4c-1.8,0-2.9-1.2-2.9-2.9
		c0-1.8,1-3.1,2.7-3.1c1.9,0,2.4,1.7,2.4,2.7c0,0.2,0,0.4,0,0.5H275.4z M278.5,28.6c0-0.7-0.3-1.7-1.5-1.7c-1.1,0-1.5,1-1.6,1.7
		H278.5z"/>
	<path class="st8" d="M282.1,24.6v1.7h1.5v0.8h-1.5v3.1c0,0.7,0.2,1.1,0.8,1.1c0.3,0,0.5,0,0.6-0.1l0,0.8c-0.2,0.1-0.5,0.1-0.9,0.1
		c-0.5,0-0.9-0.2-1.1-0.4c-0.3-0.3-0.4-0.8-0.4-1.5v-3.2h-0.9v-0.8h0.9v-1.4L282.1,24.6z"/>
	<path class="st8" d="M288,32.1l-0.1-0.7h0c-0.3,0.5-0.9,0.9-1.8,0.9c-1.2,0-1.8-0.8-1.8-1.7c0-1.4,1.2-2.2,3.5-2.2v-0.1
		c0-0.5-0.1-1.3-1.3-1.3c-0.5,0-1.1,0.2-1.5,0.4l-0.2-0.7c0.5-0.3,1.2-0.5,1.9-0.5c1.8,0,2.2,1.2,2.2,2.4v2.2c0,0.5,0,1,0.1,1.4H288
		z M287.8,29.1c-1.2,0-2.5,0.2-2.5,1.3c0,0.7,0.5,1,1,1c0.8,0,1.2-0.5,1.4-1c0-0.1,0.1-0.2,0.1-0.3V29.1z"/>
</g>
</svg>
